<svg xmlns="http://www.w3.org/2000/svg" xmlns:xlink="http://www.w3.org/1999/xlink" viewBox="0 0 64 64" id="balloons">
  <defs>
    <linearGradient id="b" x1="13.24" x2="19.17" y1="53" y2="53" gradientUnits="userSpaceOnUse">
      <stop offset="0" stop-color="#d4d8e1"></stop>
      <stop offset="1" stop-color="#f3f4f5"></stop>
    </linearGradient>
    <linearGradient id="a" x1="11" x2="21" y1="41" y2="41" gradientUnits="userSpaceOnUse">
      <stop offset="0" stop-color="#b15de5"></stop>
      <stop offset="1" stop-color="#df86ef"></stop>
    </linearGradient>
    <linearGradient xlink:href="#a" id="f" x1="5.03" x2="27.03" y1="27" y2="27"></linearGradient>
    <linearGradient xlink:href="#b" id="g" x1="46.16" x2="52.32" y1="51.5" y2="51.5"></linearGradient>
    <linearGradient id="c" x1="44" x2="54" y1="38" y2="38" gradientUnits="userSpaceOnUse">
      <stop offset="0" stop-color="#8cdd79"></stop>
      <stop offset="1" stop-color="#d4e6b6"></stop>
    </linearGradient>
    <linearGradient xlink:href="#c" id="h" x1="38.03" x2="60.03" y1="24" y2="24"></linearGradient>
    <linearGradient id="d" x1="54.15" x2="63.85" y1="47.99" y2="47.99" gradientUnits="userSpaceOnUse">
      <stop offset="0" stop-color="#fbcc88"></stop>
      <stop offset="1" stop-color="#ffe5c3"></stop>
    </linearGradient>
    <linearGradient xlink:href="#d" id="i" x1="3.15" x2="12.85" y1="4.99" y2="4.99"></linearGradient>
    <linearGradient xlink:href="#b" id="j" x1="29.28" x2="34.98" y1="49.5" y2="49.5"></linearGradient>
    <linearGradient id="e" x1="26" x2="38" y1="33" y2="33" gradientUnits="userSpaceOnUse">
      <stop offset="0" stop-color="#da5466"></stop>
      <stop offset="1" stop-color="#f4929c"></stop>
    </linearGradient>
    <linearGradient xlink:href="#e" id="k" x1="19" x2="45" y1="16" y2="16"></linearGradient>
    <linearGradient xlink:href="#e" id="l" x1="58" x2="60" y1="4" y2="4"></linearGradient>
    <linearGradient xlink:href="#c" id="m" x1="23" x2="25" y1="52" y2="52"></linearGradient>
    <linearGradient xlink:href="#a" id="n" x1="2" x2="4" y1="45" y2="45"></linearGradient>
  </defs>
  <path fill="url(#b)" d="M17,64a1,1,0,0,1-1-1.27L17,59.52a5.69,5.69,0,0,0-1.45-5.6,7.67,7.67,0,0,1-1.63-8.49l1.21-2.82a1,1,0,0,1,1.84.78l-1.21,2.83a5.66,5.66,0,0,0,1.21,6.28,7.73,7.73,0,0,1,2,7.57L18,63.27A1,1,0,0,1,17,64Z"></path>
  <path fill="url(#a)" d="M16,38l-4.49,3.59A1.35,1.35,0,0,0,12.35,44h7.3a1.35,1.35,0,0,0,.84-2.41Z"></path>
  <path fill="url(#f)" d="M27,24A11,11,0,0,0,5,24C5,30.08,10,41,16,41S27,30.08,27,24Z"></path>
  <path fill="url(#g)" d="M50,64a1,1,0,0,1-1-1.22l1.16-5.18A6.08,6.08,0,0,0,48.53,52a8.16,8.16,0,0,1-1.86-8.59l1.39-3.71a1,1,0,0,1,1.88.7l-1.4,3.71A6.13,6.13,0,0,0,50,50.53,8.1,8.1,0,0,1,52.13,58L51,63.22A1,1,0,0,1,50,64Z"></path>
  <path fill="url(#c)" d="M49,35l-4.49,3.59A1.35,1.35,0,0,0,45.35,41h7.3a1.35,1.35,0,0,0,.84-2.41Z"></path>
  <path fill="url(#h)" d="M60,21a11,11,0,0,0-22,0C38,27.08,43,38,49,38S60,27.08,60,21Z"></path>
  <path fill="url(#d)" d="M58.53,51.78l-1.44.76a1,1,0,0,1-1.46-1.06c.31-1.76.45-2,0-2.5l-1.17-1.14a1,1,0,0,1,.56-1.7c1.77-.26,2.09-.22,2.37-.79l.72-1.46a1,1,0,0,1,1.8,0c.79,1.6.85,1.92,1.47,2l1.62.24a1,1,0,0,1,.56,1.7c-1.28,1.25-1.57,1.41-1.46,2l.28,1.61a1,1,0,0,1-1.46,1.06C59.33,51.7,59.1,51.48,58.53,51.78Z"></path>
  <path fill="url(#i)" d="M7.53,8.78l-1.44.76A1,1,0,0,1,4.63,8.48c.31-1.76.45-2.05,0-2.5L3.45,4.84A1,1,0,0,1,4,3.14c1.77-.26,2.09-.22,2.37-.79L7.1.89a1,1,0,0,1,1.8,0c.79,1.6.85,1.92,1.47,2L12,3.14a1,1,0,0,1,.56,1.7c-1.28,1.25-1.57,1.41-1.46,2l.28,1.61A1,1,0,0,1,9.91,9.54C8.33,8.7,8.1,8.48,7.53,8.78Z"></path>
  <path fill="url(#j)" d="M32,64a1,1,0,0,1-1-1.29l1.51-5a10,10,0,0,0-1.25-8.42A12,12,0,0,1,30,38.37l1-2.72a1,1,0,0,1,1.88.7l-1,2.72a10,10,0,0,0,1,9.07,12,12,0,0,1,1.51,10.11l-1.51,5A1,1,0,0,1,32,64Z"></path>
  <path fill="url(#e)" d="M32,29l-5.26,4.39A2,2,0,0,0,28,37H36a2,2,0,0,0,1.3-3.61Z"></path>
  <path fill="url(#k)" d="M45,13a13,13,0,0,0-26,0c0,7.18,5.82,19,13,19S45,20.18,45,13Z"></path>
  <circle cx="59" cy="4" r="1" fill="url(#l)"></circle>
  <circle cx="24" cy="52" r="1" fill="url(#m)"></circle>
  <circle cx="3" cy="45" r="1" fill="url(#n)"></circle>
</svg>
