<svg xmlns="http://www.w3.org/2000/svg" id="cake" viewBox="0 0 64 64">
  <polygon points="49.92 36.78 49.92 42.7 12.82 49.78 12.82 43.85 49.92 36.78" style="fill:#feda7e"></polygon>
  <path d="M14.79,33.26c.18,0,.37.01.56.01,5.76,0,3.84-1.92,7.68,1.92s3.84-1.92,7.69-1.92c3.84,0,1.92,1.92,5.76,1.92s0-3.84,3.84-3.84,1.92,1.92,5.77,1.92c1.62,0,2.9-.34,3.83-.88v4.39l-37.1,7.07v-11.49c.46.52,1.12.88,1.97.9Z" style="fill:#da5653"></path>
  <path d="M33.06 21.97c.05.13.11.26.17.38-.07-.12-.12-.25-.17-.38ZM33.23 22.35c.05.12.11.23.18.34-.07-.11-.13-.22-.18-.34Z" style="fill:#feda7e"></path>
  <path d="M49.93,32.38v16.25l-37.11,7.08v-5.93l37.1-7.08v-10.31q.01,0,.01-.01Z" style="fill:#da5653"></path>
  <path d="M13.67,31.22c-.59-.01-1.1-.19-1.5-.48-.08-.98.36-2.01,1.42-2.58l17.98-9.68,1.07-.58.3.09c-.2.57-.3,1.19-.3,1.83,0,.22.01.45.04.66.02.17.04.34.08.5.03.18.08.35.13.52.05.16.1.32.17.47.05.13.1.26.17.38.05.12.11.23.18.34.03.05.06.11.09.15.06.1.12.2.19.29.2.29.43.55.67.79.12.12.25.23.38.34.09.08.19.15.28.21.09.08.18.14.28.2.02.02.04.03.06.04.11.07.23.14.35.2.34.18.69.33,1.07.43.14.05.29.09.44.12.02,0,.03.01.05,0,.13.04.27.06.41.07.23.03.48.05.72.05,2.67,0,4.91-1.81,5.56-4.28l5.72,2.26c.51,1.24,1.05,2.8,1.05,3.82,0,1.11-.64,2.22-1.92,2.96q0,.01-.01.01c-.93.54-2.21.88-3.83.88-3.85,0-1.93-1.92-5.77-1.92s0,3.84-3.84,3.84-1.92-1.92-5.76-1.92c-3.85,0-3.85,5.76-7.69,1.92s-1.92-1.92-7.68-1.92c-.19,0-.38-.01-.56-.01Z" style="fill:#feda7e"></path>
  <path d="M37.4,14.06c0-2.34,1.01-6.77,4.84-6.77.56,0,1,.45,1,1s-.44,1-1,1c-2.79,0-2.84,4.72-2.84,4.77,0,.03,0,.06-.01.09-.32-.06-.65-.09-.99-.09s-.67.03-.99.09c-.01-.03-.01-.06-.01-.09Z" style="fill:#dc2653"></path>
  <path d="M33.5,22.84c.06.1.12.2.19.29-.07-.09-.13-.19-.19-.29Z" style="fill:#feda7e"></path>
  <path d="M38.4,15.05c-.52,0-.95-.39-.99-.9.32-.06.65-.09.99-.09s.67.03.99.09c-.04.51-.47.9-.99.9Z" style="fill:#dc2653"></path>
  <path d="M32.94,17.99c.66-1.98,2.37-3.48,4.47-3.84.04.51.47.9.99.9s.95-.39.99-.9c2.71.47,4.77,2.83,4.77,5.67,0,.51-.07,1.01-.2,1.48-.65,2.47-2.89,4.28-5.56,4.28-.24,0-.49-.02-.72-.05-.14-.01-.28-.03-.41-.07-.02.01-.03,0-.05,0-.15-.03-.3-.07-.44-.12-.38-.1-.73-.25-1.07-.43-.12-.06-.24-.13-.35-.2-.02-.01-.04-.02-.06-.04-.09-.06-.19-.12-.28-.2-.09-.06-.19-.13-.28-.21-.13-.11-.26-.22-.38-.34-.24-.24-.47-.5-.67-.79-.07-.09-.13-.19-.19-.29-.03-.04-.06-.1-.09-.15-.07-.11-.13-.22-.18-.34-.06-.12-.12-.25-.17-.38-.07-.15-.12-.31-.17-.47-.05-.17-.1-.34-.13-.52-.04-.16-.06-.33-.08-.5-.03-.21-.04-.44-.04-.66,0-.64.1-1.26.3-1.83Z" style="fill:#e65272"></path>
  <path d="M35.02 24.47c.09.08.19.14.28.2-.1-.06-.19-.12-.28-.2ZM35.36 24.71c.11.07.23.14.35.2-.12-.06-.24-.13-.35-.2Z" style="fill:#feda7e"></path>
  <path d="M14.79,33.26c-.85-.02-1.51-.38-1.97-.9v-.01c-.38-.45-.61-1.02-.65-1.61.4.29.91.47,1.5.48.18,0,.37.01.56.01,5.76,0,3.84-1.92,7.68,1.92s3.84-1.92,7.69-1.92c3.84,0,1.92,1.92,5.76,1.92s0-3.84,3.84-3.84,1.92,1.92,5.77,1.92c1.62,0,2.9-.34,3.83-.88q.01,0,.01-.01c1.28-.74,1.92-1.85,1.92-2.96,0-1.02-.54-2.58-1.05-3.82l.25.1s1.92,3.84,1.92,5.76c0,1.11-.64,2.22-1.92,2.96q0,.01-.01.01c-.93.54-2.21.88-3.83.88-3.85,0-1.93-1.92-5.77-1.92s0,3.84-3.84,3.84-1.92-1.92-5.76-1.92c-3.85,0-3.85,5.76-7.69,1.92s-1.92-1.92-7.68-1.92c-.19,0-.38-.01-.56-.01Z" style="fill:#de975e"></path>
</svg>
